<svg width="150" height="81" viewBox="0 0 150 81" fill="none" xmlns="http://www.w3.org/2000/svg">
<path d="M54.9005 3.37246e-05C57.3291 0.00985177 59.2913 1.98566 59.2818 4.41432C59.2753 6.19853 59.1572 7.98535 59.0757 9.76694C58.949 12.5349 58.8313 15.3021 58.7459 18.0717C58.5449 24.6046 58.4903 31.1439 58.7318 37.6765C58.9111 42.5289 59.2356 47.384 59.9143 52.1942C60.4386 55.9103 61.1338 59.8417 62.6533 63.2973C63.0362 64.1682 63.4837 65.0467 64.1058 65.7736C64.3473 66.0557 64.6759 66.4276 65.0678 66.4914C65.3915 66.5438 65.7505 66.424 66.0487 66.3159C66.7885 66.0479 67.4594 65.6217 68.0983 65.1651C67.2896 61.9243 66.8984 58.5672 66.7253 55.2489C66.3784 48.6044 66.917 41.7962 68.5537 35.3386C69.7053 30.7958 71.5591 25.6539 75.4215 22.7078C76.203 22.1118 77.0671 21.6192 77.9959 21.292C78.7862 21.0135 79.619 20.8532 80.4571 20.8362C81.1214 20.8225 81.7863 20.8983 82.4306 21.0603C86.9872 22.2076 89.199 27.0399 89.2157 31.3932C89.2347 36.2995 86.6793 40.8581 82.7243 43.6939C80.6688 45.1679 78.3385 46.1345 75.9092 46.7936C75.7152 49.6752 75.714 52.5701 75.9188 55.4483C76.1306 58.4255 76.5601 61.4198 77.4382 64.2788C77.7579 65.3189 78.135 66.3443 78.6229 67.3182C78.9119 67.8952 79.2393 68.456 79.6287 68.9715C79.991 69.4516 80.4106 69.9061 80.9224 70.2294C82.491 71.2207 84.6319 70.203 86.0408 69.3934C86.4093 69.1816 86.7663 68.953 87.1214 68.7193C87.306 68.5983 87.4962 68.492 87.6902 68.4004C91.8807 61.697 96.04 54.9737 100.079 48.1781C100.356 47.7136 100.631 47.2484 100.905 46.7831C100.262 44.1217 99.642 41.4544 99.0286 38.7858C98.0023 34.3232 97.0042 29.8454 95.7122 25.4503C95.3073 24.0732 94.8725 22.6983 94.3289 21.369C94.2465 21.1677 94.1603 20.9687 94.0717 20.7701C92.687 21.1104 91.1645 20.7733 90.0377 19.7346C88.2519 18.0884 88.1388 15.3055 89.7849 13.52C90.3438 12.9165 90.9505 12.3682 91.659 11.9437C92.2209 11.6073 92.8307 11.3468 93.4686 11.1936C93.9906 11.0683 94.5289 11.0101 95.0659 11.0274C99.1509 11.1583 101.29 15.0369 102.617 18.375C104.507 23.1302 105.632 28.1865 106.845 33.1439C107.03 33.8969 107.212 34.6508 107.394 35.4051C111.65 27.6241 115.583 19.6724 118.919 11.4423C119.602 9.75362 121.215 8.7203 122.928 8.6931C123.5 8.68426 124.081 8.78717 124.644 9.01461C126.896 9.9254 127.982 12.4883 127.072 14.7399C123.66 23.1916 119.676 31.3945 115.395 39.4375C113.827 42.3837 112.217 45.3059 110.576 48.2094C111.527 51.7371 112.572 55.2364 113.804 58.674C114.116 59.5449 114.441 60.4121 114.787 61.2701C115.057 61.9384 115.335 62.6015 115.63 63.259C115.903 63.8654 116.19 64.4666 116.491 65.0596C117.309 66.673 118.244 68.3047 119.519 69.6059C120.056 70.1534 120.748 70.7737 121.549 70.8552C121.598 70.8602 121.647 70.862 121.695 70.8629C121.492 70.0876 121.335 69.2994 121.211 68.5113C120.544 64.285 120.743 59.9268 121.307 55.6983C122.476 46.9203 125.414 38.1237 130.672 30.933C131.567 29.7067 132.977 29.0784 134.388 29.1298C135.234 29.1602 136.081 29.4365 136.817 29.9732C138.779 31.405 139.207 34.1558 137.776 36.1178C134.459 40.672 132.365 45.9983 131.143 51.4757C130.475 54.4693 130.052 57.5277 129.935 60.5939C129.853 62.7417 129.901 64.9153 130.262 67.0386C130.308 67.3118 130.365 67.6186 130.429 67.9325C130.504 67.8314 130.581 67.7296 130.653 67.6305C131.625 66.292 132.431 64.8399 133.19 63.3734C134.375 61.0979 137.18 60.2136 139.455 61.3983C141.73 62.583 142.615 65.3876 141.43 67.663C141.007 68.4717 140.572 69.2733 140.111 70.0607C139.761 70.6592 139.398 71.2501 139.017 71.8293C137.006 74.8847 134.054 78.3687 130.106 78.5812C129.379 78.6203 128.654 78.5613 127.949 78.382C127.743 78.5265 127.523 78.6568 127.289 78.7694C126.096 79.3391 124.856 79.783 123.547 79.9951C122.57 80.1531 121.572 80.1844 120.587 80.0817C114.265 79.4212 110.32 73.6159 107.814 68.3521C107.313 67.2999 106.849 66.232 106.415 65.1504C105.83 63.6924 105.296 62.2124 104.796 60.7233C104.611 60.1734 104.432 59.622 104.256 59.0694C100.81 64.8424 97.276 70.5639 93.7217 76.2733C92.6623 77.9697 90.6877 78.7463 88.8379 78.3625C85.4018 79.924 81.5993 80.5713 77.9432 79.0692C77.0226 78.6909 76.1528 78.218 75.3445 77.6358C74.1516 76.7767 73.1171 75.7112 72.2355 74.5379C72.0655 74.3119 71.9014 74.0818 71.7426 73.8482C70.9275 74.318 70.0793 74.7281 69.1881 75.0477C68.1395 75.4234 67.0428 75.6736 65.9301 75.7489C64.9768 75.813 64.0165 75.7488 63.0822 75.5472C61.5417 75.2148 60.2067 74.5606 59.0463 73.6811C58.8281 74.0413 58.6024 74.3971 58.3671 74.7469C56.4549 77.5912 53.6704 80.2389 49.9688 79.8829C49.3604 79.8246 48.7616 79.6815 48.1908 79.4626C47.4195 79.1671 46.7064 78.7332 46.0735 78.2037C45.2678 77.5295 44.5973 76.7067 44.0354 75.8221C42.7598 73.8136 41.9858 71.5101 41.3594 69.2297C40.3282 65.4754 39.7128 61.6015 39.2383 57.7415C38.9604 55.4794 38.7319 53.211 38.5438 50.9379C37.6134 52.6161 36.6555 54.2796 35.6511 55.9143C32.5263 60.9994 29.0787 65.9945 24.9107 70.2873C20.9435 74.3732 15.2814 78.716 9.21555 77.0653C8.34339 76.828 7.50637 76.4717 6.72748 76.0135C5.73721 75.4313 4.84859 74.6883 4.06939 73.8469C0.173936 69.6412 -0.58405 63.8685 0.375477 58.3985C1.57753 51.5446 5.19655 44.8771 9.67162 39.6075C11.7897 37.1131 14.1979 34.8198 16.9604 33.0503C18.506 32.0606 20.1728 31.2335 21.9407 30.7255C23.054 30.4061 24.2072 30.2121 25.3668 30.1912C26.3318 30.1735 27.2998 30.2746 28.2374 30.5047C31.4106 31.2829 33.6692 33.3242 35.2682 35.8877C35.4266 35.4302 35.5886 34.9725 35.7476 34.5163C36.031 33.7041 36.3118 32.8919 36.5942 32.0797C37.0292 30.8292 37.4608 29.5766 37.9183 28.3343C38.225 27.5008 38.5193 26.6221 38.9899 25.8619C39.3234 25.3229 39.724 24.8778 40.2309 24.4844C40.4387 24.3234 40.6455 24.1288 40.9018 24.0699C41.8763 23.8467 42.8815 23.7913 43.8715 23.6519C43.9555 23.6401 44.0383 23.6843 44.1201 23.7072C44.8748 23.9189 45.5569 24.268 46.1349 24.8021C46.3276 24.9801 46.6035 25.225 46.7229 25.4672C47.0282 26.0873 47.422 26.6938 47.5379 27.3755C47.7237 28.4662 47.4457 29.4411 47.3286 30.5066C47.1764 31.8899 47.1602 33.29 47.1451 34.6799C47.1006 38.8562 47.2609 43.042 47.5436 47.2081C47.8192 51.264 48.1965 55.3164 48.7987 59.3378C49.1862 61.9262 49.6476 64.5228 50.3692 67.0414C50.5603 67.708 50.7672 68.3727 51.0106 69.0226C51.7872 67.7584 52.4273 66.4141 53.0334 65.0618C53.1028 64.9073 53.1798 64.7584 53.2635 64.6154C52.9428 63.6733 52.6671 62.7336 52.429 61.8237C50.9704 56.2474 50.3867 50.4626 50.034 44.7233C49.4825 35.7581 49.6052 26.75 49.9272 17.778C50.0241 15.081 50.1419 12.3846 50.2682 9.68896C50.351 7.92171 50.4787 6.14838 50.4862 4.37884C50.496 1.95027 52.4716 -0.00937302 54.9005 3.37246e-05ZM19.7632 41.5033C19.7632 41.532 19.756 47.7207 16.658 50.8183C13.5578 53.9189 7.36117 53.9235 7.34303 53.9235C7.36119 53.9235 13.5578 53.9279 16.658 57.0284C19.7556 60.126 19.7632 66.3134 19.7632 66.3434C19.7633 66.3134 19.7706 60.126 22.8681 57.0284C25.9733 53.9233 32.1835 53.9235 32.1835 53.9235C32.1835 53.9235 25.9733 53.9235 22.8681 50.8183C19.7702 47.7207 19.7633 41.532 19.7632 41.5033ZM79.4942 26.5391C79.4942 26.5391 79.4942 30.1495 77.6891 31.9544C75.8907 33.7528 72.3009 33.7598 72.2738 33.7598C72.3009 33.7598 75.8907 33.7665 77.6891 35.5649C79.4885 37.3643 79.4941 40.9573 79.4942 40.9801C79.4942 40.9573 79.4998 37.3643 81.2992 35.5649C83.1041 33.7597 86.7148 33.7598 86.7148 33.7598C86.7148 33.7598 83.1041 33.7596 81.2992 31.9544C79.4942 30.1495 79.4942 26.5391 79.4942 26.5391ZM140.152 9.01173C140.152 9.02316 140.155 13.9388 142.614 16.398C145.076 18.8599 150 18.8598 150 18.8598C150 18.8598 145.076 18.86 142.614 21.322C140.159 23.777 140.152 28.6809 140.152 28.7076C140.152 28.6808 140.145 23.777 137.69 21.322C135.228 18.86 130.304 18.8598 130.304 18.8598C130.304 18.8598 135.228 18.86 137.69 16.398C140.149 13.9388 140.152 9.02317 140.152 9.01173Z" fill="#E7EFF3"/>
</svg>
